{"title":"Witches of East End - S01E01 - Pilot HDTV PROPER 480p x264 AAC E","uid":9013757,"size":134174462,"categoryP":"video","categoryS":"tv_shows","magnet":"?xt=urn:btih:800d6b8500618db9bc4bd23f5b45bf660213619d&amp;dn=Witches+of+East+End+-+S01E01+-+Pilot+HDTV+PROPER+480p+x264+AAC+E&amp;tr=udp%3A%2F%2Ftracker.openbittorrent.com%3A80&amp;tr=udp%3A%2F%2Fopen.demonii.com%3A1337&amp;tr=udp%3A%2F%2Ftracker.coppersurfer.tk%3A6969&amp;tr=udp%3A%2F%2Fexodus.desync.com%3A6969","seeders":2,"leechers":0,"uploader":"canc232","files":1,"time":1381156275,"description":"Witches of East End - S01E01 - Pilot HDTV PROPER 480p x264 AAC E-Subs [GWC].mp4\n\n\nSCREENS :\n &lt;a href=&quot;\nhttp://imageshack.com/scaled/medium/401/ue6r.jpg&quot; rel=&quot;nofollow&quot; target=&quot;_NEW&quot;&gt;\nhttp://imageshack.com/scaled/medium/401/ue6r.jpg&lt;/a&gt; &lt;a href=&quot;\nhttp://imageshack.com/scaled/medium/594/v801.jpg&quot; rel=&quot;nofollow&quot; target=&quot;_NEW&quot;&gt;\nhttp://imageshack.com/scaled/medium/594/v801.jpg&lt;/a&gt; &lt;a href=&quot;\nhttp://imageshack.com/scaled/medium/834/8v47.jpg&quot; rel=&quot;nofollow&quot; target=&quot;_NEW&quot;&gt;\nhttp://imageshack.com/scaled/medium/834/8v47.jpg&lt;/a&gt;\n\n\nMEDIA INFO :\n\nGeneral \nFormat : MPEG-4 \nFormat profile : Base Media \nCodec ID : isom \nFile size : 128 MiB \nDuration : 42mn 48s \nOverall bit rate mode : Variable \nOverall bit rate : 418 Kbps \n\nVideo \nID : 1 \nFormat : AVC \nFormat profile : &lt;a class=&quot;__cf_email__&quot; href=&quot;/cdn-cgi/l/email-protection&quot; data-cfemail=&quot;9cd4f5fbf4dcd0afb2ac&quot;&gt;[email&amp;#160;protected]&lt;/a&gt;&lt;script cf-hash='f9e31' type=&quot;text/javascript&quot;&gt;\n/* &lt;![CDATA[ */!function(){try{var t=&quot;currentScript&quot;in document?document.currentScript:function(){for(var t=document.getElementsByTagName(&quot;script&quot;),e=t.length;e--;)if(t[e].getAttribute(&quot;cf-hash&quot;))return t[e]}();if(t&amp;&amp;t.previousSibling){var e,r,n,i,c=t.previousSibling,a=c.getAttribute(&quot;data-cfemail&quot;);if(a){for(e=&quot;&quot;,r=parseInt(a.substr(0,2),16),n=2;a.length-n;n+=2)i=parseInt(a.substr(n,2),16)^r,e+=String.fromCharCode(i);e=document.createTextNode(e),c.parentNode.replaceChild(e,c)}}}catch(u){}}();/* ]]&gt; */&lt;/script&gt; \nFormat settings, CABAC : Yes \nFormat settings, ReFrames : 4 frames \nDuration : 42mn 48s \nBit rate : 351 Kbps \nMaximum bit rate : 1 704 Kbps \nWidth : 720 pixels \nHeight : 404 pixels \nDisplay aspect ratio : 16:9 \nFrame rate mode : Variable \nFrame rate : 23.976 fps \nStream size : 108 MiB (84%) \nTitle : Witches of East End - 01x01 - Pilot HDTV PROPER 480p x264 AAC E-Subs [GWC] \nLanguage : English \n\nAudio \nID : 2 \nFormat : AAC \nFormat/Info : Advanced Audio Codec \nCodec ID : 40 \nDuration : 42mn 48s \nBit rate mode : Variable \nChannel(s) : 2 channels\nCompression mode : Lossy \nStream size : 17.8 MiB\nLanguage : English \n\nText \nFormat : Timed Text \nMuxing mode : sbtl \nCodec ID : tx3g \nDuration : 42mn 9s \nBit rate mode : Variable \nStream size : 32.4 KiB (0%) \nTitle : English Subtitle by honeybunny \nLanguage : English \n \n\n","torrent":{"xt":"urn:btih:800d6b8500618db9bc4bd23f5b45bf660213619d","amp;dn":"Witches+of+East+End+-+S01E01+-+Pilot+HDTV+PROPER+480p+x264+AAC+E","amp;tr":["udp%3A%2F%2Ftracker.openbittorrent.com%3A80","udp%3A%2F%2Fopen.demonii.com%3A1337","udp%3A%2F%2Ftracker.coppersurfer.tk%3A6969","udp%3A%2F%2Fexodus.desync.com%3A6969"],"infoHash":"800d6b8500618db9bc4bd23f5b45bf660213619d","infoHashBuffer":{"type":"Buffer","data":[128,13,107,133,0,97,141,185,188,75,210,63,91,69,191,102,2,19,97,157]},"announce":[],"urlList":[]}}